<svg width="32" height="32" viewBox="0 0 32 32" fill="none" xmlns="http://www.w3.org/2000/svg">
<path d="M26.6587 23.307C27.7157 23.3321 28.7638 23.1068 29.7186 22.6491C30.4283 22.3007 31.2109 22.1302 32 22.1523V20.1923C30.9429 20.1671 29.8948 20.3925 28.94 20.8502C28.2319 21.1735 27.4641 21.3427 26.6867 21.3468C25.9094 21.351 25.1399 21.1899 24.4284 20.8742V16.8858C25.3326 16.6914 26.1602 16.2334 26.8082 15.5687C27.4563 14.9041 27.8961 14.0621 28.0731 13.1475C29.147 12.941 30.1159 12.3634 30.8128 11.5144C31.5096 10.6654 31.8909 9.59797 31.8909 8.4961C31.8909 7.39423 31.5096 6.32685 30.8128 5.47781C30.1159 4.62878 29.147 4.05124 28.0731 3.84468C27.9021 2.94923 27.4779 2.12269 26.8515 1.46465C26.2251 0.806617 25.4233 0.345152 24.5426 0.135851C23.662 -0.0734497 22.74 -0.0216547 21.8879 0.284995C21.0358 0.591645 20.2898 1.14007 19.7399 1.86419C19.3032 1.28482 18.7394 0.815082 18.0927 0.491699C17.446 0.168315 16.7339 4.9569e-05 16.0119 4.9569e-05C15.29 4.9569e-05 14.5778 0.168315 13.9311 0.491699C13.2844 0.815082 12.7206 1.28482 12.2839 1.86419C11.7343 1.13715 10.9875 0.586094 10.1337 0.277623C9.28001 -0.0308477 8.35591 -0.0835294 7.47311 0.125938C6.59031 0.335405 5.78661 0.798059 5.15912 1.45799C4.53162 2.11792 4.10719 2.94688 3.93714 3.84468C2.86319 4.05124 1.89433 4.62878 1.19745 5.47781C0.500568 6.32685 0.119292 7.39423 0.119292 8.4961C0.119292 9.59797 0.500568 10.6654 1.19745 11.5144C1.89433 12.3634 2.86319 12.941 3.93714 13.1475C4.11411 14.0621 4.55396 14.9041 5.20198 15.5687C5.85 16.2334 6.67759 16.6914 7.58184 16.8858V20.8742C6.88593 21.2112 6.11981 21.3745 5.34811 21.3505C4.56013 21.3726 3.77855 21.2021 3.07017 20.8536C2.11537 20.3959 1.06727 20.1706 0.0102539 20.1958V22.1557C0.79931 22.1337 1.58196 22.3041 2.29159 22.6525C3.24634 23.1103 4.29448 23.3357 5.3515 23.3104C6.10978 23.3218 6.86467 23.206 7.58524 22.9678V25.2155C6.88933 25.5525 6.1232 25.7158 5.3515 25.6918C4.56353 25.7139 3.78195 25.5435 3.07357 25.195C2.11878 24.7372 1.07067 24.5119 0.0136571 24.5371V26.497C0.802713 26.475 1.58536 26.6454 2.29499 26.9938C3.25353 27.4275 4.29231 27.6517 5.343 27.6517C6.3937 27.6517 7.43248 27.4275 8.39102 26.9938C9.10768 26.6664 9.88548 26.497 10.6724 26.497C11.4592 26.497 12.237 26.6664 12.9537 26.9938C13.9122 27.4275 14.951 27.6517 16.0017 27.6517C17.0524 27.6517 18.0912 27.4275 19.0497 26.9938C19.7664 26.6664 20.5442 26.497 21.3311 26.497C22.1179 26.497 22.8957 26.6664 23.6124 26.9938C24.5715 27.4276 25.6109 27.6518 26.6621 27.6518C27.7134 27.6518 28.7527 27.4276 29.7118 26.9938C30.4214 26.6454 31.2041 26.475 31.9932 26.497V24.5371C30.9362 24.5119 29.888 24.7372 28.9333 25.195C28.2251 25.5182 27.4573 25.6874 26.68 25.6916C25.9026 25.6957 25.133 25.5347 24.4216 25.2189V22.9643C25.1432 23.2031 25.8993 23.3189 26.6587 23.307ZM12.2601 15.128C12.9412 16.0263 13.9175 16.6507 15.014 16.8892V21.2785C14.5608 21.1965 14.1206 21.0536 13.7051 20.8536C12.7503 20.3959 11.7022 20.1706 10.6452 20.1958C10.2585 20.1945 9.87219 20.2209 9.48919 20.2746V16.8858C10.591 16.6511 11.5736 16.0278 12.2601 15.128ZM16.9588 16.8858C18.0556 16.6478 19.0328 16.0248 19.7161 15.128C20.3978 16.0272 21.3756 16.6517 22.4734 16.8892V20.2746C22.0893 20.2208 21.7019 20.1944 21.3141 20.1958C20.257 20.1704 19.2089 20.3958 18.2541 20.8536C17.8383 21.0526 17.3981 21.1955 16.9452 21.2785L16.9588 16.8858ZM23.4424 1.96013C24.1734 1.96104 24.8742 2.2541 25.3911 2.77504C25.908 3.29598 26.1988 4.00227 26.1997 4.73899V5.71896H27.1721C27.5421 5.70586 27.911 5.76799 28.2566 5.90166C28.6023 6.03532 28.9177 6.23778 29.1841 6.49696C29.4505 6.75613 29.6623 7.06671 29.807 7.41018C29.9517 7.75365 30.0262 8.12296 30.0262 8.4961C30.0262 8.86924 29.9517 9.23855 29.807 9.58202C29.6623 9.92549 29.4505 10.2361 29.1841 10.4952C28.9177 10.7544 28.6023 10.9569 28.2566 11.0905C27.911 11.2242 27.5421 11.2863 27.1721 11.2732H26.1997V12.2532C26.1977 12.9148 25.9616 13.554 25.5338 14.0558C25.1059 14.5576 24.5145 14.8891 23.8658 14.9907C23.2171 15.0923 22.5538 14.9573 21.995 14.61C21.4363 14.2627 21.0188 13.7259 20.8177 13.0961C21.8421 12.8471 22.7536 12.258 23.4056 11.4236C24.0575 10.5893 24.412 9.55812 24.412 8.4961C24.412 7.43408 24.0575 6.40293 23.4056 5.56856C22.7536 4.73418 21.8421 4.1451 20.8177 3.89608C20.9962 3.33268 21.3482 2.84126 21.8226 2.49315C22.297 2.14503 22.8692 1.95833 23.456 1.96013H23.4424ZM15.9864 1.96013C16.7174 1.96104 17.4182 2.2541 17.9351 2.77504C18.452 3.29598 18.7428 4.00227 18.7437 4.73899V5.71896H19.7399C20.1099 5.70586 20.4788 5.76799 20.8244 5.90166C21.1701 6.03532 21.4855 6.23778 21.7519 6.49696C22.0183 6.75613 22.2301 7.06671 22.3748 7.41018C22.5195 7.75365 22.594 8.12296 22.594 8.4961C22.594 8.86924 22.5195 9.23855 22.3748 9.58202C22.2301 9.92549 22.0183 10.2361 21.7519 10.4952C21.4855 10.7544 21.1701 10.9569 20.8244 11.0905C20.4788 11.2242 20.1099 11.2863 19.7399 11.2732H18.7675V12.2532C18.7655 12.9148 18.5294 13.554 18.1016 14.0558C17.6737 14.5576 17.0823 14.8891 16.4336 14.9907C15.7849 15.0923 15.1216 14.9573 14.5628 14.61C14.0041 14.2627 13.5866 13.7259 13.3855 13.0961C14.4099 12.8471 15.3214 12.258 15.9734 11.4236C16.6253 10.5893 16.9798 9.55812 16.9798 8.4961C16.9798 7.43408 16.6253 6.40293 15.9734 5.56856C15.3214 4.73418 14.4099 4.1451 13.3855 3.89608C13.5627 3.33658 13.9112 2.84796 14.3808 2.50021C14.8504 2.15246 15.4172 1.9634 16 1.96013H15.9864ZM5.78669 12.2395V11.2595H4.81432C4.4443 11.2726 4.07546 11.2105 3.72978 11.0768C3.38411 10.9432 3.06868 10.7407 2.80232 10.4815C2.53596 10.2224 2.32412 9.91178 2.17944 9.56832C2.03475 9.22485 1.96019 8.85553 1.96019 8.4824C1.96019 8.10926 2.03475 7.73994 2.17944 7.39648C2.32412 7.05301 2.53596 6.74242 2.80232 6.48325C3.06868 6.22407 3.38411 6.02162 3.72978 5.88795C4.07546 5.75429 4.4443 5.69215 4.81432 5.70525H5.80029V4.72529C5.80029 3.98829 6.0908 3.28147 6.60789 2.76034C7.12499 2.2392 7.82632 1.94643 8.55761 1.94643C9.2889 1.94643 9.99024 2.2392 10.5073 2.76034C11.0244 3.28147 11.3149 3.98829 11.3149 4.72529V5.70525H12.2601C12.6301 5.69215 12.999 5.75429 13.3447 5.88795C13.6903 6.02162 14.0058 6.22407 14.2721 6.48325C14.5385 6.74242 14.7503 7.05301 14.895 7.39648C15.0397 7.73994 15.1142 8.10926 15.1142 8.4824C15.1142 8.85553 15.0397 9.22485 14.895 9.56832C14.7503 9.91178 14.5385 10.2224 14.2721 10.4815C14.0058 10.7407 13.6903 10.9432 13.3447 11.0768C12.999 11.2105 12.6301 11.2726 12.2601 11.2595H11.2911V12.2395C11.2911 12.9765 11.0006 13.6833 10.4835 14.2045C9.96644 14.7256 9.26511 15.0184 8.53382 15.0184C7.80253 15.0184 7.10119 14.7256 6.58409 14.2045C6.06699 13.6833 5.77649 12.9765 5.77649 12.2395H5.78669ZM10.669 24.5336C10.2823 24.5324 9.89599 24.5588 9.51299 24.6124V22.279C9.89328 22.2007 10.2808 22.1639 10.669 22.1694C11.458 22.1474 12.2407 22.3178 12.9503 22.6662C13.6061 22.9784 14.3075 23.1821 15.0276 23.2693V25.6438C14.5744 25.5618 14.1342 25.4189 13.7187 25.2189C12.7681 24.7581 11.7236 24.5281 10.669 24.5473V24.5336ZM18.2813 25.1915C17.8649 25.389 17.4249 25.5318 16.9724 25.6164V23.2419C17.6915 23.1552 18.3919 22.9516 19.0463 22.6388C19.7561 22.2908 20.5386 22.1204 21.3277 22.142C21.7169 22.1366 22.1056 22.1734 22.487 22.2516V24.6124C22.1029 24.5587 21.7155 24.5323 21.3277 24.5336C20.2741 24.5148 19.2308 24.7448 18.2813 25.2052V25.1915Z" fill="#002E2B"/>
<path d="M26.6587 30.0537C25.8696 30.0757 25.087 29.9052 24.3773 29.5568C23.4188 29.1231 22.38 28.8989 21.3293 28.8989C20.2786 28.8989 19.2398 29.1231 18.2813 29.5568C17.5646 29.8843 16.7868 30.0537 16 30.0537C15.2131 30.0537 14.4353 29.8843 13.7186 29.5568C12.7595 29.1231 11.7202 28.8988 10.6689 28.8988C9.61765 28.8988 8.5783 29.1231 7.61919 29.5568C6.90311 29.8842 6.12587 30.0536 5.33955 30.0536C4.55323 30.0536 3.776 29.8842 3.05992 29.5568C2.10512 29.0991 1.05701 28.8738 0 28.8989V30.8452C0.789056 30.8231 1.57171 30.9936 2.28133 31.342C3.23987 31.7757 4.27865 31.9999 5.32935 31.9999C6.38004 31.9999 7.41883 31.7757 8.37736 31.342C9.09402 31.0145 9.87183 30.8451 10.6587 30.8451C11.4456 30.8451 12.2234 31.0145 12.94 31.342C13.8986 31.7757 14.9374 31.9999 15.9881 31.9999C17.0387 31.9999 18.0775 31.7757 19.0361 31.342C19.7527 31.0145 20.5305 30.8451 21.3174 30.8451C22.1043 30.8451 22.8821 31.0145 23.5987 31.342C24.5579 31.7758 25.5972 32 26.6485 32C27.6997 32 28.7391 31.7758 29.6982 31.342C30.4078 30.9936 31.1905 30.8231 31.9795 30.8452V28.8852C30.9225 28.8601 29.8744 29.0854 28.9196 29.5431C28.2173 29.893 27.442 30.0681 26.6587 30.0537Z" fill="#002E2B"/>
</svg>
